<svg id="Capa_1" data-name="Capa 1" xmlns="http://www.w3.org/2000/svg" xmlns:xlink="http://www.w3.org/1999/xlink" viewBox="0 0 441.03 459"><defs><style>.cls-1{fill:url(#Degradado_sin_nombre_8);}.cls-2{fill:url(#Degradado_sin_nombre_7);}.cls-3{fill:url(#Degradado_sin_nombre_10);}</style><linearGradient id="Degradado_sin_nombre_8" x1="53.41" y1="134.55" x2="314.22" y2="419.67" gradientUnits="userSpaceOnUse"><stop offset="0" stop-color="#6abf4b"/><stop offset="1" stop-color="#009845"/></linearGradient><linearGradient id="Degradado_sin_nombre_7" x1="160.2" y1="57.98" x2="274.38" y2="221.8" gradientUnits="userSpaceOnUse"><stop offset="0" stop-color="#fe7c2f"/><stop offset="0.24" stop-color="#f45f28"/><stop offset="0.55" stop-color="#ea3f21"/><stop offset="0.82" stop-color="#e32c1d"/><stop offset="1" stop-color="#e1251b"/></linearGradient><linearGradient id="Degradado_sin_nombre_10" x1="447.65" y1="386.46" x2="185.79" y2="-10.67" gradientUnits="userSpaceOnUse"><stop offset="0" stop-color="#ae95da"/><stop offset="0.26" stop-color="#8e68c2"/><stop offset="0.51" stop-color="#7544ae"/><stop offset="0.71" stop-color="#662ea2"/><stop offset="0.84" stop-color="#60269e"/></linearGradient></defs><title>load</title><path class="cls-1" d="M204,141.28h0c33.83-4.37,65.41,74.89,76.77,162.68h0c11.36,87.8,1,172.49-32.84,176.87h0c-33.83,4.37-65.41-74.89-76.77-162.68h0c-11.36-87.8-1-172.49,32.84-176.87h0M205.35,152h0c-20.81,2.69-35.69,71-23.55,164.8h0c12.14,93.84,43.91,156.09,64.72,153.39h0c20.8-2.69,35.68-71,23.54-164.8h0C257.92,211.52,226.16,149.27,205.35,152ZM149,298.9h0A54,54,0,0,1,78.35,328h0a54,54,0,0,1-29.07-70.62h0a54,54,0,0,1,70.62-29.07h0A54,54,0,0,1,149,298.9h0M139,294.76h0a43.25,43.25,0,0,0-23.28-56.55h0a43.25,43.25,0,0,0-56.55,23.28h0A43.24,43.24,0,0,0,82.49,318h0A43.24,43.24,0,0,0,139,294.76Z" transform="translate(-30.1 -22)"/><path class="cls-2" d="M347.74,235.23h0c-13.12,31.48-97.55,19.2-179.27-14.86h0C86.76,186.31,18.6,135,31.72,103.5h0C44.85,72,129.28,84.29,211,118.36h0c81.72,34.06,149.88,85.38,136.75,116.87h0m-9.93-4.15h0c8.07-19.36-43.63-66.39-131-102.79h0c-87.33-36.4-157.12-40-165.19-20.65h0C33.59,127,85.28,174,172.61,210.43h0C259.94,246.84,329.74,250.45,337.81,231.08ZM238.74,108.79h0a54,54,0,0,1,10.14-75.7h0a54,54,0,0,1,75.69,10.14h0a54,54,0,0,1-10.14,75.69h0a54,54,0,0,1-75.69-10.13h0m8.55-6.54h0a43.24,43.24,0,0,0,60.61,8.12h0A43.24,43.24,0,0,0,316,49.76h0a43.24,43.24,0,0,0-60.61-8.12h0A43.24,43.24,0,0,0,247.29,102.25Z" transform="translate(-30.1 -22)"/><path class="cls-3" d="M194.5,312.77h0c-20.71-27.11,32.15-94.09,102.5-147.83h0c70.36-53.73,148.88-87.1,169.59-60h0c20.7,27.11-32.15,94.09-102.51,147.82h0c-70.35,53.74-148.87,87.11-169.58,60h0m8.55-6.54h0c12.74,16.68,79.31-4.58,154.5-62h0C432.74,186.79,470.77,128.16,458,111.48h0c-12.73-16.67-79.31,4.59-154.5,62h0C228.34,230.93,190.32,289.56,203.05,306.23ZM358.5,281.59h0A54,54,0,0,1,419,328.21h0a54,54,0,0,1-46.63,60.49h0a54,54,0,0,1-60.49-46.63h0a54,54,0,0,1,46.63-60.48h0m1.38,10.67h0a43.23,43.23,0,0,0-37.33,48.43h0A43.24,43.24,0,0,0,371,378h0a43.24,43.24,0,0,0,37.33-48.43h0A43.24,43.24,0,0,0,359.88,292.26Z" transform="translate(-30.1 -22)"/></svg>