<svg id="Capa_1" data-name="Capa 1" xmlns="http://www.w3.org/2000/svg" xmlns:xlink="http://www.w3.org/1999/xlink" viewBox="0 0 455 168"><defs><style>.cls-1{fill:url(#Degradado_sin_nombre_8);}.cls-2{fill:#e1251b;}.cls-3{fill:url(#Degradado_sin_nombre_2);}.cls-4{fill:url(#Degradado_sin_nombre_10);}.cls-5{fill:#fff;}</style><linearGradient id="Degradado_sin_nombre_8" x1="12.91" y1="48.2" x2="108.37" y2="152.55" gradientUnits="userSpaceOnUse"><stop offset="0" stop-color="#6abf4b"/><stop offset="1" stop-color="#009845"/></linearGradient><linearGradient id="Degradado_sin_nombre_2" x1="4.38" y1="49.35" x2="121.24" y2="49.35" gradientUnits="userSpaceOnUse"><stop offset="0" stop-color="#ff5f00"/><stop offset="0.32" stop-color="#ff5f00" stop-opacity="0.99"/><stop offset="0.45" stop-color="#ff5f00" stop-opacity="0.96"/><stop offset="0.56" stop-color="#ff5f00" stop-opacity="0.91"/><stop offset="0.64" stop-color="#ff5f00" stop-opacity="0.84"/><stop offset="0.72" stop-color="#ff5f00" stop-opacity="0.75"/><stop offset="0.78" stop-color="#ff5f00" stop-opacity="0.64"/><stop offset="0.84" stop-color="#ff5f00" stop-opacity="0.51"/><stop offset="0.9" stop-color="#ff5f00" stop-opacity="0.35"/><stop offset="0.95" stop-color="#ff5f00" stop-opacity="0.18"/><stop offset="1" stop-color="#ff5f00" stop-opacity="0"/></linearGradient><linearGradient id="Degradado_sin_nombre_10" x1="157.21" y1="140.4" x2="61.36" y2="-4.96" gradientUnits="userSpaceOnUse"><stop offset="0" stop-color="#ae95da"/><stop offset="0.26" stop-color="#8e68c2"/><stop offset="0.51" stop-color="#7544ae"/><stop offset="0.71" stop-color="#662ea2"/><stop offset="0.84" stop-color="#60269e"/></linearGradient></defs><title>logo_b</title><path class="cls-1" d="M68,50.66h0C80.4,49.06,92,78.07,96.11,110.2h0c4.16,32.14.37,63.13-12,64.74h0c-12.39,1.6-23.94-27.41-28.1-59.55h0c-4.16-32.13-.37-63.13,12-64.73h0m.5,3.91h0c-7.61,1-13.06,26-8.62,60.32h0C64.35,149.23,76,172,83.59,171h0c7.62-1,13.06-26,8.62-60.32h0C87.76,76.37,76.14,53.58,68.52,54.57ZM47.89,108.35h0A19.77,19.77,0,0,1,22,119h0A19.76,19.76,0,0,1,11.4,93.14h0A19.76,19.76,0,0,1,37.25,82.5h0a19.77,19.77,0,0,1,10.64,25.85h0m-3.64-1.52h0a15.82,15.82,0,0,0-8.52-20.69h0A15.82,15.82,0,0,0,15,94.66h0a15.83,15.83,0,0,0,8.52,20.69h0A15.82,15.82,0,0,0,44.25,106.83Z" transform="translate(-4.38 -7)"/><path class="cls-2" d="M120.64,85h0c-4.8,11.53-35.71,7-65.62-5.43h0C25.12,67.14.17,48.35,5,36.83H5c4.81-11.52,35.71-7,65.62,5.44h0C100.5,54.73,125.44,73.52,120.64,85h0M117,83.53h0c3-7.09-16-24.3-47.93-37.63h0c-32-13.32-57.51-14.64-60.46-7.55h0c-3,7.08,16,24.3,47.93,37.62h0C88.5,89.29,114.05,90.62,117,83.53ZM80.74,38.76h0a19.77,19.77,0,0,1,3.71-27.7h0a19.76,19.76,0,0,1,27.71,3.71h0a19.77,19.77,0,0,1-3.71,27.71h0a19.77,19.77,0,0,1-27.71-3.72h0m3.13-2.39h0a15.83,15.83,0,0,0,22.19,3h0a15.83,15.83,0,0,0,3-22.18h0a15.83,15.83,0,0,0-22.19-3h0A15.83,15.83,0,0,0,83.87,36.37Z" transform="translate(-4.38 -7)"/><path class="cls-3" d="M120.64,85h0c-4.8,11.53-35.71,7-65.62-5.43h0C25.12,67.14.17,48.35,5,36.83H5c4.81-11.52,35.71-7,65.62,5.44h0C100.5,54.73,125.44,73.52,120.64,85h0M117,83.53h0c3-7.09-16-24.3-47.93-37.63h0c-32-13.32-57.51-14.64-60.46-7.55h0c-3,7.08,16,24.3,47.93,37.62h0C88.5,89.29,114.05,90.62,117,83.53ZM80.74,38.76h0a19.77,19.77,0,0,1,3.71-27.7h0a19.76,19.76,0,0,1,27.71,3.71h0a19.77,19.77,0,0,1-3.71,27.71h0a19.77,19.77,0,0,1-27.71-3.72h0m3.13-2.39h0a15.83,15.83,0,0,0,22.19,3h0a15.83,15.83,0,0,0,3-22.18h0a15.83,15.83,0,0,0-22.19-3h0A15.83,15.83,0,0,0,83.87,36.37Z" transform="translate(-4.38 -7)"/><path class="cls-4" d="M64.55,113.42h0C57,103.5,76.32,79,102.07,59.32h0c25.75-19.67,54.49-31.88,62.07-22h0c7.58,9.92-11.77,34.44-37.52,54.11h0c-25.75,19.66-54.49,31.88-62.07,22h0M67.68,111h0c4.66,6.11,29-1.67,56.55-22.69h0c27.52-21,41.44-42.49,36.78-48.59h0c-4.66-6.1-29,1.68-56.55,22.7h0C76.94,83.47,63,104.93,67.68,111Zm56.9-9h0a19.77,19.77,0,0,1,22.14,17.07h0a19.77,19.77,0,0,1-17.07,22.14h0a19.77,19.77,0,0,1-22.14-17.07h0A19.77,19.77,0,0,1,124.58,102h0m.5,3.91h0a15.82,15.82,0,0,0-13.66,17.73h0a15.83,15.83,0,0,0,17.72,13.66h0a15.83,15.83,0,0,0,13.67-17.73h0A15.83,15.83,0,0,0,125.08,105.92Z" transform="translate(-4.38 -7)"/><path class="cls-5" d="M217,125.64a3.23,3.23,0,0,1-2.28.81,3.19,3.19,0,0,1-2.52-1.08c-1-1.12-1.07-2.38-1.07-6.45s.1-5.34,1.07-6.45a3.53,3.53,0,0,1,4.86-.21,4.15,4.15,0,0,1,1.06,2.91h-1.76a2.79,2.79,0,0,0-.48-1.67,1.41,1.41,0,0,0-1.16-.52,1.44,1.44,0,0,0-1.22.56c-.51.7-.6,1.88-.6,5.38s.09,4.67.6,5.37a1.59,1.59,0,0,0,2.38,0,3.06,3.06,0,0,0,.48-1.7h1.76A4.17,4.17,0,0,1,217,125.64Z" transform="translate(-4.38 -7)"/><path class="cls-5" d="M228.14,125.37a3.49,3.49,0,0,1-5,0c-1-1.05-1.08-2.38-1.08-6.45s.13-5.4,1.08-6.45a3.49,3.49,0,0,1,5,0c1,1,1.07,2.37,1.07,6.45S229.09,124.32,228.14,125.37Zm-1.33-11.83a1.41,1.41,0,0,0-1.2-.56,1.44,1.44,0,0,0-1.22.56c-.51.7-.6,1.88-.6,5.38s.09,4.67.6,5.37a1.44,1.44,0,0,0,1.22.56,1.41,1.41,0,0,0,1.2-.56c.52-.7.62-1.88.62-5.37S227.33,114.24,226.81,113.54Z" transform="translate(-4.38 -7)"/><path class="cls-5" d="M239.16,126.28l-3.81-10.07v10.07h-1.77V111.55h1.65L239,121.63V111.55h1.78v14.73Z" transform="translate(-4.38 -7)"/><path class="cls-5" d="M251.07,125.54a3.69,3.69,0,0,1-2.6.88,3.57,3.57,0,0,1-2.59-.88c-.68-.69-.91-1.54-.91-3.11h1.78a2.55,2.55,0,0,0,.5,1.93,1.9,1.9,0,0,0,2.48,0,2.75,2.75,0,0,0,.47-2c0-1.69-.24-2.21-1.44-2.71l-1.68-.68c-1.51-.62-2-1.45-2-3.68a4,4,0,0,1,1.12-3,3.34,3.34,0,0,1,2.34-.85,3.39,3.39,0,0,1,2.44.85,3.88,3.88,0,0,1,1,3h-1.78a2.6,2.6,0,0,0-.45-1.78,1.45,1.45,0,0,0-1.2-.5,1.49,1.49,0,0,0-1.14.46,2.59,2.59,0,0,0-.52,1.76c0,1.44.23,1.88,1.41,2.37l1.65.69c1.68.68,2.07,1.71,2.07,4C252,123.86,251.77,124.83,251.07,125.54Z" transform="translate(-4.38 -7)"/><path class="cls-5" d="M262,125.47a3.43,3.43,0,0,1-2.46,1,3.38,3.38,0,0,1-2.44-1,3.5,3.5,0,0,1-.95-2.54V111.55h1.78V123a1.63,1.63,0,1,0,3.24,0V111.55h1.78v11.38A3.5,3.5,0,0,1,262,125.47Z" transform="translate(-4.38 -7)"/><path class="cls-5" d="M267.53,126.28V111.55h1.78v13.14h3.91v1.59Z" transform="translate(-4.38 -7)"/><path class="cls-5" d="M279.41,113.15v13.13h-1.78V113.15h-2.48v-1.6h6.72v1.6Z" transform="translate(-4.38 -7)"/><path class="cls-5" d="M291.26,125.37a3.49,3.49,0,0,1-5.05,0c-.95-1.05-1.08-2.38-1.08-6.45s.13-5.4,1.08-6.45a3.49,3.49,0,0,1,5.05,0c.95,1,1.07,2.37,1.07,6.45S292.21,124.32,291.26,125.37Zm-1.33-11.83a1.41,1.41,0,0,0-1.2-.56,1.44,1.44,0,0,0-1.22.56c-.51.7-.6,1.88-.6,5.38s.09,4.67.6,5.37a1.44,1.44,0,0,0,1.22.56,1.41,1.41,0,0,0,1.2-.56c.52-.7.62-1.88.62-5.37S290.45,114.24,289.93,113.54Z" transform="translate(-4.38 -7)"/><path class="cls-5" d="M302.09,126.28l-2-6.33h-1.6v6.33h-1.78V111.55H300c2.24,0,3.48,1,3.48,4.2,0,2-.5,3.25-1.78,3.85l2.25,6.68Zm-2-13.13h-1.58v5.23h1.58c1.36,0,1.67-1,1.67-2.63S301.41,113.15,300.05,113.15Z" transform="translate(-4.38 -7)"/><path class="cls-5" d="M308.17,126.28V111.55H310v14.73Zm1.43-15.76h-1.28l1.42-2.79h1.54Z" transform="translate(-4.38 -7)"/><path class="cls-5" d="M320.15,126.28l-.71-3.47H316l-.7,3.47h-1.86l3.43-14.73h1.72L322,126.28Zm-2.4-11.85-1.39,6.78h2.75Z" transform="translate(-4.38 -7)"/><path class="cls-5" d="M337.37,125.25a3.17,3.17,0,0,1-2.52,1h-3.39V111.55h3.39a3.18,3.18,0,0,1,2.52,1c1,1,1.06,2.34,1.06,6.33S338.33,124.23,337.37,125.25Zm-1.32-11.54a1.55,1.55,0,0,0-1.26-.56h-1.55v11.54h1.55a1.55,1.55,0,0,0,1.26-.56c.56-.68.6-1.82.6-5.21S336.61,114.39,336.05,113.71Z" transform="translate(-4.38 -7)"/><path class="cls-5" d="M342.79,126.28V111.55h5.69v1.6h-3.91v4.94h3.37v1.59h-3.37v5h3.91v1.59Z" transform="translate(-4.38 -7)"/><path class="cls-5" d="M364.24,126.28l-3.81-10.07v10.07h-1.77V111.55h1.65l3.76,10.08V111.55h1.78v14.73Z" transform="translate(-4.38 -7)"/><path class="cls-5" d="M370.59,126.28V111.55h5.69v1.6h-3.91v4.94h3.37v1.59h-3.37v5h3.91v1.59Z" transform="translate(-4.38 -7)"/><path class="cls-5" d="M383.76,126.45a3.24,3.24,0,0,1-2.52-1.08c-.95-1.05-1.08-2.38-1.08-6.45s.13-5.4,1.08-6.45a3.52,3.52,0,0,1,4.9-.17,4.12,4.12,0,0,1,1,2.9H385.4c0-1-.27-2.22-1.64-2.22a1.44,1.44,0,0,0-1.22.56c-.51.7-.6,1.88-.6,5.38s.09,4.67.6,5.37a1.44,1.44,0,0,0,1.22.56c1,0,1.64-.85,1.64-2v-3h-1.64v-1.47h3.42v4.36C387.15,125.2,385.69,126.45,383.76,126.45Z" transform="translate(-4.38 -7)"/><path class="cls-5" d="M397.43,125.37a3.48,3.48,0,0,1-5,0c-.95-1.05-1.08-2.38-1.08-6.45s.13-5.4,1.08-6.45a3.48,3.48,0,0,1,5,0c.95,1,1.08,2.37,1.08,6.45S398.38,124.32,397.43,125.37Zm-1.32-11.83a1.41,1.41,0,0,0-1.2-.56,1.44,1.44,0,0,0-1.22.56c-.52.7-.6,1.88-.6,5.38s.08,4.67.6,5.37a1.44,1.44,0,0,0,1.22.56,1.41,1.41,0,0,0,1.2-.56c.52-.7.62-1.88.62-5.37S396.63,114.24,396.11,113.54Z" transform="translate(-4.38 -7)"/><path class="cls-5" d="M408.5,125.64a3.25,3.25,0,0,1-2.28.81,3.17,3.17,0,0,1-2.52-1.08c-1-1.12-1.08-2.38-1.08-6.45s.11-5.34,1.08-6.45a3.53,3.53,0,0,1,4.86-.21,4.1,4.1,0,0,1,1.05,2.91h-1.75a2.79,2.79,0,0,0-.48-1.67,1.41,1.41,0,0,0-1.16-.52,1.44,1.44,0,0,0-1.22.56c-.51.7-.6,1.88-.6,5.38s.09,4.67.6,5.37a1.59,1.59,0,0,0,2.38,0,3.06,3.06,0,0,0,.48-1.7h1.75A4.12,4.12,0,0,1,408.5,125.64Z" transform="translate(-4.38 -7)"/><path class="cls-5" d="M413.79,126.28V111.55h1.78v14.73Z" transform="translate(-4.38 -7)"/><path class="cls-5" d="M426.08,125.37a3.49,3.49,0,0,1-5.05,0c-.95-1.05-1.08-2.38-1.08-6.45s.13-5.4,1.08-6.45a3.49,3.49,0,0,1,5.05,0c.95,1,1.07,2.37,1.07,6.45S427,124.32,426.08,125.37Zm-1.33-11.83a1.41,1.41,0,0,0-1.2-.56,1.44,1.44,0,0,0-1.22.56c-.51.7-.6,1.88-.6,5.38s.09,4.67.6,5.37a1.44,1.44,0,0,0,1.22.56,1.41,1.41,0,0,0,1.2-.56c.52-.7.62-1.88.62-5.37S425.27,114.24,424.75,113.54Z" transform="translate(-4.38 -7)"/><path class="cls-5" d="M437.08,125.54a3.7,3.7,0,0,1-2.61.88,3.56,3.56,0,0,1-2.58-.88c-.68-.69-.91-1.54-.91-3.11h1.78a2.59,2.59,0,0,0,.49,1.93,1.65,1.65,0,0,0,1.22.45,1.63,1.63,0,0,0,1.26-.47,2.7,2.7,0,0,0,.48-2c0-1.69-.25-2.21-1.45-2.71l-1.67-.68c-1.51-.62-2-1.45-2-3.68a4,4,0,0,1,1.12-3,3.31,3.31,0,0,1,2.33-.85,3.4,3.4,0,0,1,2.45.85,3.88,3.88,0,0,1,1,3h-1.78a2.55,2.55,0,0,0-.46-1.78,1.44,1.44,0,0,0-1.2-.5,1.47,1.47,0,0,0-1.13.46,2.54,2.54,0,0,0-.52,1.76c0,1.44.23,1.88,1.41,2.37l1.65.69c1.68.68,2.07,1.71,2.07,4C438,123.86,437.78,124.83,437.08,125.54Z" transform="translate(-4.38 -7)"/><path class="cls-5" d="M207.35,83.09v2.36a8.41,8.41,0,0,1-.67,3.34,9.43,9.43,0,0,1-1.84,2.81,9,9,0,0,1-2.76,2,8.06,8.06,0,0,1-3.39.72,12,12,0,0,1-3.16-.43,7.46,7.46,0,0,1-2.89-1.49,8.34,8.34,0,0,1-2.11-2.76,9.78,9.78,0,0,1-.83-4.3v-21a9.43,9.43,0,0,1,.64-3.47,8.23,8.23,0,0,1,1.82-2.78A8.49,8.49,0,0,1,195,56.22a9.55,9.55,0,0,1,3.61-.67,8.27,8.27,0,0,1,6.26,2.52A9.08,9.08,0,0,1,206.68,61a9.81,9.81,0,0,1,.67,3.67v2.13h-5.46V65a4.43,4.43,0,0,0-.9-2.78A2.94,2.94,0,0,0,198.53,61a2.78,2.78,0,0,0-2.71,1.26,6.76,6.76,0,0,0-.66,3.18V84.91a5,5,0,0,0,.72,2.78,2.83,2.83,0,0,0,2.59,1.13,3.79,3.79,0,0,0,1.15-.19,3.31,3.31,0,0,0,1.15-.62,3.14,3.14,0,0,0,.8-1.17,4.65,4.65,0,0,0,.32-1.87V83.09Z" transform="translate(-4.38 -7)"/><path class="cls-5" d="M222.16,64.86a9.77,9.77,0,0,1,.8-4.06,8.73,8.73,0,0,1,2.14-2.95A9.39,9.39,0,0,1,228,56.14a9.47,9.47,0,0,1,6.58,0,10.07,10.07,0,0,1,3,1.71,9,9,0,0,1,2.09,2.95,9.77,9.77,0,0,1,.8,4.06V85a9.69,9.69,0,0,1-.8,4.11,8.46,8.46,0,0,1-2.09,2.84,9.22,9.22,0,0,1-3,1.76,9.47,9.47,0,0,1-6.58,0,8.64,8.64,0,0,1-2.92-1.76A8.2,8.2,0,0,1,223,89.08a9.69,9.69,0,0,1-.8-4.11ZM227.62,85a3.61,3.61,0,0,0,1.09,2.91,4.05,4.05,0,0,0,5.19,0A3.61,3.61,0,0,0,235,85V64.86a3.65,3.65,0,0,0-1.1-2.92,4.09,4.09,0,0,0-5.19,0,3.65,3.65,0,0,0-1.09,2.92Z" transform="translate(-4.38 -7)"/><path class="cls-5" d="M255.74,94V55.88H261l8.23,22.94h.11V55.88h5.45V94h-5.13l-8.34-22.89h-.11V94Z" transform="translate(-4.38 -7)"/><path class="cls-5" d="M308,66.84h-5.45V65.61a5.82,5.82,0,0,0-.88-3.24,3.27,3.27,0,0,0-3-1.36,3.38,3.38,0,0,0-1.82.43,3.48,3.48,0,0,0-1.12,1.07,4.49,4.49,0,0,0-.59,1.57,10.11,10.11,0,0,0-.16,1.85c0,.75,0,1.37.08,1.87a3.56,3.56,0,0,0,.4,1.34,3,3,0,0,0,.94,1,8.61,8.61,0,0,0,1.68.86l4.17,1.66a10,10,0,0,1,2.94,1.63A7,7,0,0,1,307,76.46a10.16,10.16,0,0,1,.8,2.92,29.3,29.3,0,0,1,.21,3.71,19.64,19.64,0,0,1-.48,4.47,9.27,9.27,0,0,1-1.55,3.5,7.72,7.72,0,0,1-2.94,2.36,10.37,10.37,0,0,1-4.44.85,9.77,9.77,0,0,1-3.69-.69A8.89,8.89,0,0,1,292,91.65a9.3,9.3,0,0,1-1.95-2.86,8.71,8.71,0,0,1-.72-3.56v-2h5.45v1.71a4.5,4.5,0,0,0,.88,2.7,3.43,3.43,0,0,0,3,1.21,4.91,4.91,0,0,0,2.17-.4,2.83,2.83,0,0,0,1.2-1.15,4.13,4.13,0,0,0,.51-1.8c.05-.69.08-1.47.08-2.32a23.24,23.24,0,0,0-.11-2.46,4.29,4.29,0,0,0-.42-1.55,3,3,0,0,0-1-1,13.19,13.19,0,0,0-1.64-.81l-3.9-1.6A8.65,8.65,0,0,1,290.8,72a13.22,13.22,0,0,1-1.2-6,13.89,13.89,0,0,1,.58-4.06A9.28,9.28,0,0,1,292,58.6a8.25,8.25,0,0,1,2.86-2.22,9.58,9.58,0,0,1,4.14-.83,9,9,0,0,1,3.72.75,9.61,9.61,0,0,1,2.91,2A8.26,8.26,0,0,1,308,64.16Z" transform="translate(-4.38 -7)"/><path class="cls-5" d="M340.45,55.88V85.39a8.63,8.63,0,0,1-2.57,6.26,9.18,9.18,0,0,1-2.83,1.93,8.57,8.57,0,0,1-3.42.69,8.37,8.37,0,0,1-3.4-.69,9.33,9.33,0,0,1-2.81-1.93,9,9,0,0,1-1.92-2.81,8.35,8.35,0,0,1-.7-3.45V55.88h5.46v29a4.07,4.07,0,0,0,1,3,3.47,3.47,0,0,0,4.81,0,4,4,0,0,0,1-3v-29Z" transform="translate(-4.38 -7)"/><path class="cls-5" d="M356.28,94V55.88h5.46V88.5h10.8V94Z" transform="translate(-4.38 -7)"/><path class="cls-5" d="M386.39,94V61h-6.31V55.88h18.07V61h-6.31V94Z" transform="translate(-4.38 -7)"/><path class="cls-5" d="M411.25,94V55.88h16.26V61h-10.8V72.19h9.41v5.13h-9.41V88.5h10.8V94Z" transform="translate(-4.38 -7)"/><path class="cls-5" d="M441.73,94V55.88h5.46V72.19h6.74V55.88h5.45V94h-5.45V77h-6.74V94Z" transform="translate(-4.38 -7)"/></svg>